<?xml version="1.0" encoding="utf-8"?>
<!-- Generator: Adobe Illustrator 24.0.1, SVG Export Plug-In . SVG Version: 6.00 Build 0)  -->
<svg version="1.1" id="Layer_1" xmlns="http://www.w3.org/2000/svg" xmlns:xlink="http://www.w3.org/1999/xlink" x="0px" y="0px"
	 viewBox="0 0 1920 1080" style="enable-background:new 0 0 1920 1080;" xml:space="preserve">
<style type="text/css">
	.st0{fill:none;stroke:#428372;stroke-width:5;stroke-miterlimit:10;}
	.st1{fill:none;stroke:#EA6972;stroke-width:5;stroke-miterlimit:10;}
	.st2{fill:none;stroke:#EE1D00;stroke-width:5;stroke-miterlimit:10;}
	.st3{fill:none;stroke:#FF8372;stroke-width:5;stroke-miterlimit:10;}
	.st4{fill:none;stroke:#FF0000;stroke-width:5;stroke-miterlimit:10;}
</style>
<g id="Layer_1_1_">
	<polygon class="st0" points="174.33,264 162.77,250.82 145.36,252.88 154.32,237.81 146.98,221.89 164.08,225.75 176.96,213.85 
		178.57,231.31 193.86,239.88 177.76,246.81 	"/>
	<polygon class="st1" points="224.65,246.78 226.51,228.16 212.46,215.81 230.47,212.13 237.47,194.91 246.75,211.25 265.13,212.95 
		252.85,226.73 257.21,245.01 240.34,237.18 	"/>
	<polygon class="st0" points="323.94,255.65 312.37,242.47 294.96,244.53 303.92,229.46 296.59,213.54 313.69,217.4 326.56,205.5 
		328.17,222.96 343.47,231.53 327.36,238.46 	"/>
	<polygon class="st2" points="57.94,212.65 46.37,199.47 28.96,201.53 37.92,186.46 30.59,170.54 47.69,174.4 60.56,162.5 
		62.17,179.96 77.47,188.53 61.36,195.46 	"/>
	<polygon class="st0" points="580.94,162.65 569.37,149.47 551.96,151.53 560.92,136.46 553.59,120.54 570.69,124.4 583.56,112.5 
		585.17,129.96 600.47,138.53 584.36,145.46 	"/>
	<polygon class="st3" points="512.94,150.65 501.37,137.47 483.96,139.53 492.92,124.46 485.59,108.54 502.69,112.4 515.56,100.5 
		517.17,117.96 532.47,126.53 516.36,133.46 	"/>
	<polygon class="st0" points="468.17,203 458.15,191.25 442.84,193.27 450.85,179.62 444.57,165.37 459.55,168.68 470.97,157.85 
		472.21,173.54 485.56,181.1 471.35,187.49 	"/>
	<polygon class="st0" points="527.25,43.19 517.23,31.45 501.92,33.47 509.93,19.82 503.65,5.56 518.63,8.87 530.05,-1.96 
		531.29,13.73 544.64,21.3 530.43,27.69 	"/>
	<polygon class="st0" points="411.25,66.19 401.23,54.45 385.92,56.47 393.93,42.82 387.65,28.56 402.63,31.87 414.05,21.04 
		415.29,36.73 428.64,44.3 414.43,50.69 	"/>
	<polygon class="st0" points="238.25,69.19 228.23,57.45 212.92,59.47 220.93,45.82 214.65,31.56 229.63,34.87 241.05,24.04 
		242.29,39.73 255.64,47.3 241.43,53.69 	"/>
	<polygon class="st0" points="161.25,111.19 151.23,99.45 135.92,101.47 143.93,87.82 137.65,73.56 152.63,76.87 164.05,66.04 
		165.29,81.73 178.64,89.3 164.43,95.69 	"/>
	<polygon class="st0" points="41.25,109.19 31.23,97.45 15.92,99.47 23.93,85.82 17.65,71.56 32.63,74.87 44.05,64.04 45.29,79.73 
		58.64,87.3 44.43,93.69 	"/>
	<polygon class="st2" points="637.94,111.65 626.37,98.47 608.96,100.53 617.92,85.46 610.59,69.54 627.69,73.4 640.56,61.5 
		642.17,78.96 657.47,87.53 641.36,94.46 	"/>
	<polygon class="st2" points="291.94,194.65 280.37,181.47 262.96,183.53 271.92,168.46 264.59,152.54 281.69,156.4 294.56,144.5 
		296.17,161.96 311.47,170.53 295.36,177.46 	"/>
	<polygon class="st2" points="463.94,38.65 452.37,25.47 434.96,27.53 443.92,12.46 436.59,-3.46 453.69,0.4 466.56,-11.5 
		468.17,5.96 483.47,14.53 467.36,21.46 	"/>
	<polygon class="st2" points="588.94,22.65 577.37,9.47 559.96,11.53 568.92,-3.54 561.59,-19.46 578.69,-15.6 591.56,-27.5 
		593.17,-10.04 608.47,-1.47 592.36,5.46 	"/>
	<polygon class="st2" points="106.94,94.65 95.37,81.47 77.96,83.53 86.92,68.46 79.59,52.54 96.69,56.4 109.56,44.5 111.17,61.96 
		126.47,70.53 110.36,77.46 	"/>
	<polygon class="st0" points="1882.94,227.65 1871.37,214.47 1853.96,216.53 1862.92,201.46 1855.59,185.54 1872.69,189.4 
		1885.56,177.5 1887.17,194.96 1902.47,203.53 1886.36,210.46 	"/>
	<polygon class="st0" points="1561.94,162.65 1550.37,149.47 1532.96,151.53 1541.92,136.46 1534.59,120.54 1551.69,124.4 
		1564.56,112.5 1566.17,129.96 1581.47,138.53 1565.36,145.46 	"/>
	<polygon class="st0" points="1423.94,129.65 1412.37,116.47 1394.96,118.53 1403.92,103.46 1396.59,87.54 1413.69,91.4 
		1426.56,79.5 1428.17,96.96 1443.47,105.53 1427.36,112.46 	"/>
	<polygon class="st0" points="1306.94,94.65 1295.37,81.47 1277.96,83.53 1286.92,68.46 1279.59,52.54 1296.69,56.4 1309.56,44.5 
		1311.17,61.96 1326.47,70.53 1310.36,77.46 	"/>
	<polygon class="st0" points="140.94,208.65 129.37,195.47 111.96,197.53 120.92,182.46 113.59,166.54 130.69,170.4 143.56,158.5 
		145.17,175.96 160.47,184.53 144.36,191.46 	"/>
	<polygon class="st3" points="1833.94,208.65 1822.37,195.47 1804.96,197.53 1813.92,182.46 1806.59,166.54 1823.69,170.4 
		1836.56,158.5 1838.17,175.96 1853.47,184.53 1837.36,191.46 	"/>
	<polygon class="st3" points="1899.94,183.65 1888.37,170.47 1870.96,172.53 1879.92,157.46 1872.59,141.54 1889.69,145.4 
		1902.56,133.5 1904.17,150.96 1919.47,159.53 1903.36,166.46 	"/>
	<polygon class="st3" points="1913.94,107.65 1902.37,94.47 1884.96,96.53 1893.92,81.46 1886.59,65.54 1903.69,69.4 1916.56,57.5 
		1918.17,74.96 1933.47,83.53 1917.36,90.46 	"/>
	<polygon class="st3" points="1551.94,48.65 1540.37,35.47 1522.96,37.53 1531.92,22.46 1524.59,6.54 1541.69,10.4 1554.56,-1.5 
		1556.17,15.96 1571.47,24.53 1555.36,31.46 	"/>
	<polygon class="st3" points="1616.94,187.65 1605.37,174.47 1587.96,176.53 1596.92,161.46 1589.59,145.54 1606.69,149.4 
		1619.56,137.5 1621.17,154.96 1636.47,163.53 1620.36,170.46 	"/>
	<polygon class="st0" points="1423.94,24.65 1412.37,11.47 1394.96,13.53 1403.92,-1.54 1396.59,-17.46 1413.69,-13.6 
		1426.56,-25.5 1428.17,-8.04 1443.47,0.53 1427.36,7.46 	"/>
	<polygon class="st0" points="1846.94,104.65 1835.37,91.47 1817.96,93.53 1826.92,78.46 1819.59,62.54 1836.69,66.4 1849.56,54.5 
		1851.17,71.96 1866.47,80.53 1850.36,87.46 	"/>
	<polygon class="st0" points="1722.94,104.65 1711.37,91.47 1693.96,93.53 1702.92,78.46 1695.59,62.54 1712.69,66.4 1725.56,54.5 
		1727.17,71.96 1742.47,80.53 1726.36,87.46 	"/>
	<polygon class="st0" points="1689.94,212.65 1678.37,199.47 1660.96,201.53 1669.92,186.46 1662.59,170.54 1679.69,174.4 
		1692.56,162.5 1694.17,179.96 1709.47,188.53 1693.36,195.46 	"/>
	<polygon class="st0" points="1771.94,169.65 1760.37,156.47 1742.96,158.53 1751.92,143.46 1744.59,127.54 1761.69,131.4 
		1774.56,119.5 1776.17,136.96 1791.47,145.53 1775.36,152.46 	"/>
	<polygon class="st0" points="1600.94,86.65 1589.37,73.47 1571.96,75.53 1580.92,60.46 1573.59,44.54 1590.69,48.4 1603.56,36.5 
		1605.17,53.96 1620.47,62.53 1604.36,69.46 	"/>
	<polygon class="st2" points="1337.94,29.65 1326.37,16.47 1308.96,18.53 1317.92,3.46 1310.59,-12.46 1327.69,-8.6 1340.56,-20.5 
		1342.17,-3.04 1357.47,5.53 1341.36,12.46 	"/>
	<polygon class="st2" points="1778.94,116.65 1767.37,103.47 1749.96,105.53 1758.92,90.46 1751.59,74.54 1768.69,78.4 
		1781.56,66.5 1783.17,83.96 1798.47,92.53 1782.36,99.46 	"/>
	<polygon class="st2" points="1754.94,219.65 1743.37,206.47 1725.96,208.53 1734.92,193.46 1727.59,177.54 1744.69,181.4 
		1757.56,169.5 1759.17,186.96 1774.47,195.53 1758.36,202.46 	"/>
	<polygon class="st2" points="1665.94,69.65 1654.37,56.47 1636.96,58.53 1645.92,43.46 1638.59,27.54 1655.69,31.4 1668.56,19.5 
		1670.17,36.96 1685.47,45.53 1669.36,52.46 	"/>
</g>
<g id="Layer_2_1_">
	<polygon class="st4" points="79,287.67 67.77,267.17 44.52,264.79 60.55,247.78 55.62,224.93 76.75,234.92 96.96,223.17 
		93.99,246.35 111.41,261.94 88.44,266.28 	"/>
	<polygon class="st4" points="377.63,219.45 366.4,198.95 343.15,196.57 359.17,179.56 354.24,156.71 375.38,166.7 395.59,154.95 
		392.62,178.13 410.04,193.72 387.07,198.07 	"/>
	<polygon class="st4" points="1477.63,191.45 1466.4,170.95 1443.15,168.57 1459.17,151.56 1454.24,128.71 1475.38,138.7 
		1495.59,126.95 1492.62,150.13 1510.04,165.72 1487.07,170.07 	"/>
	<polygon class="st4" points="1477.63,52.45 1466.4,31.95 1443.15,29.57 1459.17,12.56 1454.24,-10.29 1475.38,-0.3 1495.59,-12.05 
		1492.62,11.13 1510.04,26.72 1487.07,31.07 	"/>
	<polygon class="st4" points="1238.63,69.45 1227.4,48.95 1204.15,46.57 1220.17,29.56 1215.24,6.71 1236.38,16.7 1256.59,4.95 
		1253.62,28.13 1271.04,43.72 1248.07,48.07 	"/>
	<polygon class="st4" points="1348.63,151.45 1337.4,130.95 1314.15,128.57 1330.17,111.56 1325.24,88.71 1346.38,98.7 
		1366.59,86.95 1363.62,110.13 1381.04,125.72 1358.07,130.07 	"/>
	<polygon class="st4" points="321.63,82.45 310.4,61.95 287.15,59.57 303.17,42.56 298.24,19.71 319.38,29.7 339.59,17.95 
		336.62,41.13 354.04,56.72 331.07,61.07 	"/>
</g>
</svg>
